<?xml version="1.0" standalone="no"?>
<!DOCTYPE svg PUBLIC "-//W3C//DTD SVG 20010904//EN"
 "http://www.w3.org/TR/2001/REC-SVG-20010904/DTD/svg10.dtd">
<svg version="1.0" xmlns="http://www.w3.org/2000/svg"
 width="32.000000pt" height="32.000000pt" viewBox="0 0 32.000000 32.000000"
 preserveAspectRatio="xMidYMid meet">

<g transform="translate(0.000000,32.000000) scale(0.100000,-0.100000)"
fill="#000000" stroke="none">
<path d="M103 303 c-7 -3 -13 -13 -13 -24 0 -16 -7 -19 -40 -19 -45 0 -47 -2
-22 -31 46 -58 52 -61 75 -46 14 9 23 27 25 48 2 19 8 36 13 40 13 8 -23 38
-38 32z m-3 -73 c-8 -5 -22 -9 -30 -9 -10 0 -8 3 5 9 27 12 43 12 25 0z"/>
<path d="M263 143 c-7 -3 -13 -13 -13 -24 0 -16 -7 -19 -40 -19 -45 0 -47 -2
-22 -31 46 -58 52 -61 75 -46 14 9 23 27 25 48 2 19 8 36 13 40 13 8 -23 38
-38 32z m7 -73 c-8 -5 -22 -9 -30 -9 -10 0 -8 3 5 9 27 12 43 12 25 0z"/>
</g>
</svg>
